<?xml version="1.0" standalone="no"?>
<!DOCTYPE svg PUBLIC "-//W3C//DTD SVG 20010904//EN"
 "http://www.w3.org/TR/2001/REC-SVG-20010904/DTD/svg10.dtd">
<svg version="1.0" xmlns="http://www.w3.org/2000/svg"
 width="248.000000pt" height="241.000000pt" viewBox="0 0 248.000000 241.000000"
 preserveAspectRatio="xMidYMid meet">

<g transform="translate(0.000000,241.000000) scale(0.100000,-0.100000)"
fill="#000000" stroke="none">
<path d="M256 2298 c-27 -57 -94 -197 -150 -313 l-101 -210 0 -80 0 -80 94
-195 c52 -107 162 -343 246 -525 230 -502 419 -894 427 -887 6 7 198 414 269
572 55 122 53 131 -88 435 -177 382 -623 1335 -637 1363 -12 22 -15 18 -60
-80z"/>
<path d="M1191 2302 c-24 -53 -88 -188 -142 -299 -112 -227 -126 -275 -109
-358 6 -31 64 -166 129 -303 65 -136 164 -347 220 -470 90 -197 143 -309 363
-770 27 -57 51 -102 53 -100 6 6 266 570 285 619 31 78 26 109 -42 258 -121
268 -700 1506 -707 1513 -3 4 -26 -36 -50 -90z"/>
<path d="M2121 2319 c-276 -596 -275 -592 -266 -643 7 -45 44 -130 203 -465
l106 -225 50 105 c164 351 248 538 256 576 9 39 7 53 -19 116 -27 67 -278 607
-287 616 -2 2 -21 -34 -43 -80z"/>
</g>
</svg>
